<svg enable-background="new 0 0 469.333 469.333" viewBox="0 0 469.333 469.333" xmlns="http://www.w3.org/2000/svg">
    <path fill="rgba(240,245,250,.6)" d="m426.667 0h-384c-23.532 0-42.667 19.135-42.667 42.667v384c0 23.531 19.135 42.667 42.667 42.667h384c23.531 0 42.667-19.135 42.667-42.667v-384c-.001-23.532-19.136-42.667-42.667-42.667zm21.333 426.667c0 11.76-9.573 21.333-21.333 21.333h-384c-11.76 0-21.333-9.573-21.333-21.333v-234.667h426.666zm0-256h-426.667v-64h426.667zm0-85.334h-426.667v-42.666c0-11.76 9.573-21.333 21.333-21.333h384c11.76 0 21.333 9.573 21.333 21.333v42.666z"/>
    <circle fill="rgba(240,245,250,.6)" cx="53.333" cy="53.333" r="10.667"/>
    <circle fill="rgba(240,245,250,.6)" cx="96" cy="53.333" r="10.667"/>
    <circle fill="rgba(240,245,250,.6)" cx="138.667" cy="53.333" r="10.667"/>
    <path fill="rgba(240,245,250,.6)" d="m138.667 149.333h192c5.896 0 10.667-4.771 10.667-10.667s-4.771-10.666-10.667-10.666h-192c-5.896 0-10.667 4.771-10.667 10.667s4.771 10.666 10.667 10.666z"/>
</svg>