<svg enable-background="new 0 0 24 24" viewBox="0 0 24 24" xmlns="http://www.w3.org/2000/svg">
    <path fill="rgba(240,245,250,.6)" d="m21.7 4.5c-1.1.4-2.3.8-3.6 1v3.5c1.3-.2 2.4-.6 3.6-1.1zm0 10v-3.3c-.8.5-2.2 1-3.6 1.2v3.4c1.5-.2 2.8-.8 3.6-1.3zm-18-5.8c.8-.5 2.2-1 3.6-1.2v-3.3c-1.4.1-2.7.7-3.6 1.2zm0 6.3c1.1-.4 2.4-.6 3.6-.8v-3.4c-1.2.1-2.4.4-3.6.8zm10.8-3c-1.2-.3-2.3-.8-3.6-1v3.3c1.3.2 2.4.7 3.6 1v-3.3c1.3.4 2.3.5 3.6.3v-3.3c-1.1.2-2.3.2-3.6-.1zm7.9-10.2c-1.7.8-4 1.7-6.3 1.7-2.7 0-4.8-1.6-8.1-1.6-1.3 0-2.5.2-3.6.7.3-1.4-.8-2.6-2.2-2.6-1.2 0-2.1 1-2.2 2.1-.1 1 .6 1.9 1.5 2.3v19.1c0 .3.3.6.6.6h.4c.2-.1.5-.4.5-.7v-5.7c1.5-.7 3.4-1.4 6.4-1.4 2.7 0 4.8 1.6 8.1 1.6 2.4 0 4.3-.8 6.1-2 .3-.2.5-.6.5-.9v-12.2c-.1-.8-1-1.4-1.7-1zm-20.2 1.4c-.5 0-.9-.4-.9-.9s.4-.9.9-.9.9.4.9.9-.3.9-.9.9zm20.3 11.7c-1.1.8-3 1.6-5.1 1.6-3 0-5.1-1.6-8.1-1.6-2.2 0-4.8.5-6.4 1.2v-11.1c1.1-.8 3-1.6 5.1-1.6 3 0 5.1 1.6 8.1 1.6 2.2 0 4.8-.9 6.4-1.6zm-8-9.3c-1.3-.2-2.5-.7-3.6-1v3.2c1.2.3 2.3.8 3.6 1zm-7.2 2v3.3c1.7-.2 2.7-.1 3.6.1v-3.2c-1.3-.4-2.4-.4-3.6-.2z"/>
</svg>